<svg width="135" height="105" viewBox="0 0 135 105" fill="none" xmlns="http://www.w3.org/2000/svg">
<path d="M0 0C44.4282 0 88.8564 0 134.631 0C134.631 3.60809 134.631 7.21617 134.631 10.9336C93.805 10.9336 52.9791 10.9336 10.916 10.9336C10.916 22.9605 10.916 34.9875 10.916 47.3789C20.1219 47.3789 29.3277 47.3789 38.8125 47.3789C38.8125 50.987 38.8125 54.5951 38.8125 58.3125C30.0069 58.3125 21.2013 58.3125 12.1289 58.3125C12.1289 73.5466 12.1289 88.7808 12.1289 104.477C8.12637 104.477 4.12383 104.477 0 104.477C0 69.9993 0 35.522 0 0Z" fill="#111111"/>
</svg>
