<svg width="182" height="114" viewBox="0 0 182 114" fill="none" xmlns="http://www.w3.org/2000/svg">
<g filter="url(#filter0_dd_2_1860)">
<path d="M48.6234 57.4213C57.9871 50.8137 66.4487 49.4 77.0502 54.6127C81.5137 58.6472 83.5404 62.1013 84.14 68.2035C84.3507 73.8375 84.3942 79.4676 84.4369 85.1049C84.4635 86.4851 84.4896 87.8654 84.517 89.2875C84.5256 90.5453 84.5345 91.8031 84.5434 93.099C85.0763 96.7506 85.9291 97.605 88.6488 99.9408V102.371C86.7916 103.936 86.7915 103.937 84.4037 105.56C83.6159 106.102 82.8278 106.643 82.016 107.202C81.4033 107.612 80.7899 108.022 80.1586 108.445C78.3393 106.774 78.3393 106.774 76.5199 104.8V102.371C75.3693 103.172 74.2182 103.974 73.0326 104.8C67.4378 107.983 62.1896 108.238 55.9008 107.23C50.8944 104.951 49.0835 103.144 46.2729 98.4223C44.7726 93.1187 44.3477 89.3689 46.1977 84.1479C49.6645 78.5614 53.1859 75.158 59.5395 73.2143C63.0499 72.977 63.0502 72.9775 66.5893 73.0629C68.3643 73.0958 68.3645 73.0958 70.1752 73.1293C71.068 73.1575 71.9615 73.1852 72.8813 73.2143C72.7094 67.4486 72.7086 67.4481 69.6967 62.8881C64.2226 61.7339 58.7853 63.2211 53.475 64.7104L48.6234 57.4213ZM74.0941 81.7182C68.9253 81.4136 64.4635 81.2625 59.5395 83.0092C58.4786 84.0386 57.8811 84.6177 57.4438 85.2992C56.8812 86.176 56.5831 87.2226 55.9008 89.6147C55.9008 92.217 55.9003 93.2271 56.1957 94.141C56.383 94.7202 56.689 95.2614 57.1889 96.1449C60.5625 98.107 62.8965 98.649 66.8168 98.726C68.8267 97.9431 69.8498 97.5449 70.7475 96.9555C71.6778 96.3446 72.4738 95.5282 74.0941 93.8666C74.7116 89.7495 74.5191 85.8489 74.0941 81.7182Z" fill="#060506"/>
<path d="M4 4C48.4282 4 92.8564 4 138.631 4C138.631 7.60809 138.631 11.2162 138.631 14.9336C97.805 14.9336 56.9791 14.9336 14.916 14.9336C14.916 26.9605 14.916 38.9875 14.916 51.3789C24.1219 51.3789 33.3277 51.3789 42.8125 51.3789C42.8125 54.987 42.8125 58.5951 42.8125 62.3125C34.0069 62.3125 25.2013 62.3125 16.1289 62.3125C16.1289 77.5466 16.1289 92.7808 16.1289 108.477C12.1264 108.477 8.12383 108.477 4 108.477C4 73.9993 4 39.522 4 4Z" fill="#111111"/>
<path d="M96.0645 51C110.874 51 125.683 51 140.941 51C137.668 56.737 134.375 62.22 130.66 67.6472C130.161 68.3815 129.662 69.1158 129.148 69.8724C127.574 72.1888 125.995 74.5022 124.416 76.8154C123.348 78.3844 122.28 79.9536 121.213 81.5229C119.263 84.3893 117.312 87.2543 115.359 90.1182C113.767 92.4585 112.188 94.8077 110.619 97.1641C119.825 97.1641 129.031 97.1641 138.516 97.1641C138.516 100.772 138.516 104.38 138.516 108.098C122.505 108.098 106.495 108.098 90 108.098C99.5389 93.0839 99.5389 93.0839 103.171 87.7965C103.948 86.6611 104.725 85.5258 105.526 84.356C106.306 83.2206 107.086 82.0853 107.89 80.9155C109.477 78.604 111.063 76.2914 112.647 73.9776C113.336 72.9748 114.025 71.972 114.735 70.9387C116.691 67.9971 118.507 64.9641 120.322 61.9336C112.317 61.9336 104.312 61.9336 96.0645 61.9336C96.0645 58.3255 96.0645 54.7174 96.0645 51Z" fill="#070707"/>
<path d="M166 4C169.96 4 173.92 4 178 4C178 38.32 178 72.64 178 108C174.04 108 170.08 108 166 108C166 73.68 166 39.36 166 4Z" fill="#020202"/>
<path d="M147 51C150.602 51 154.205 51 157.916 51C157.916 69.8422 157.916 88.6845 157.916 108.098C154.314 108.098 150.711 108.098 147 108.098C147 89.2554 147 70.4132 147 51Z" fill="#030305"/>
<path d="M146.867 3.96875C150.469 3.96875 154.072 3.96875 157.783 3.96875C157.783 7.57684 157.783 11.1849 157.783 14.9023C154.181 14.9023 150.579 14.9023 146.867 14.9023C146.867 11.2943 146.867 7.68617 146.867 3.96875Z" fill="#000001"/>
</g>
<defs>
<filter id="filter0_dd_2_1860" x="-1" y="0" width="183" height="114" filterUnits="userSpaceOnUse" color-interpolation-filters="sRGB">
<feFlood flood-opacity="0" result="BackgroundImageFix"/>
<feColorMatrix in="SourceAlpha" type="matrix" values="0 0 0 0 0 0 0 0 0 0 0 0 0 0 0 0 0 0 127 0" result="hardAlpha"/>
<feMorphology radius="1" operator="dilate" in="SourceAlpha" result="effect1_dropShadow_2_1860"/>
<feOffset dy="1"/>
<feGaussianBlur stdDeviation="1.5"/>
<feColorMatrix type="matrix" values="0 0 0 0 0 0 0 0 0 0 0 0 0 0 0 0 0 0 0.15 0"/>
<feBlend mode="normal" in2="BackgroundImageFix" result="effect1_dropShadow_2_1860"/>
<feColorMatrix in="SourceAlpha" type="matrix" values="0 0 0 0 0 0 0 0 0 0 0 0 0 0 0 0 0 0 127 0" result="hardAlpha"/>
<feOffset dy="1"/>
<feGaussianBlur stdDeviation="1"/>
<feColorMatrix type="matrix" values="0 0 0 0 0 0 0 0 0 0 0 0 0 0 0 0 0 0 0.3 0"/>
<feBlend mode="normal" in2="effect1_dropShadow_2_1860" result="effect2_dropShadow_2_1860"/>
<feBlend mode="normal" in="SourceGraphic" in2="effect2_dropShadow_2_1860" result="shape"/>
</filter>
</defs>
</svg>
